<?xml version="1.0" standalone="no"?>
<!DOCTYPE svg PUBLIC "-//W3C//DTD SVG 20010904//EN"
 "http://www.w3.org/TR/2001/REC-SVG-20010904/DTD/svg10.dtd">
<svg version="1.0" xmlns="http://www.w3.org/2000/svg"
 width="256.000000pt" height="256.000000pt" viewBox="0 0 256.000000 256.000000"
 preserveAspectRatio="xMidYMid meet">
<metadata>
Created by potrace 1.14, written by Peter Selinger 2001-2017
</metadata>
<g transform="translate(0.000000,256.000000) scale(0.100000,-0.100000)"
fill="#000000" stroke="none">
<path d="M1177 2436 c-1 -4 -24 -10 -50 -12 -49 -4 -147 -47 -147 -65 0 -5 -4
-7 -10 -4 -5 3 -10 1 -10 -5 0 -6 -4 -8 -10 -5 -5 3 -10 2 -10 -2 0 -8 -53
-44 -64 -44 -10 0 -76 -72 -76 -82 -1 -14 -30 -55 -30 -42 0 16 -29 -30 -30
-46 0 -9 -10 -29 -22 -45 -13 -15 -21 -36 -20 -46 2 -10 -2 -18 -7 -18 -6 0
-11 -8 -11 -17 0 -10 -7 -27 -15 -37 -8 -10 -12 -23 -9 -27 2 -4 -5 -23 -16
-41 -11 -18 -20 -47 -20 -65 0 -17 -5 -33 -11 -35 -5 -2 -11 -19 -11 -38 0
-19 -5 -41 -10 -47 -15 -18 -13 -156 1 -192 8 -17 11 -40 8 -51 -3 -11 0 -26
7 -33 7 -7 12 -26 12 -42 -1 -19 7 -40 23 -57 13 -15 21 -33 18 -42 -3 -8 1
-20 8 -26 21 -17 15 -98 -10 -140 -16 -27 -20 -50 -19 -104 1 -37 6 -71 12
-75 5 -3 9 -17 8 -31 -2 -14 4 -35 11 -48 8 -13 12 -30 9 -37 -2 -7 2 -19 10
-26 9 -7 14 -23 11 -35 -2 -13 2 -25 9 -28 8 -3 12 -18 10 -41 -2 -30 3 -39
32 -61 26 -20 33 -32 29 -50 -2 -13 -1 -24 3 -24 3 0 17 -21 29 -46 13 -25 30
-48 38 -51 8 -3 12 -11 9 -18 -2 -7 14 -30 36 -51 64 -62 86 -103 85 -159 0
-47 -14 -78 -29 -68 -5 2 -8 -1 -8 -7 0 -6 -4 -8 -10 -5 -5 3 -10 1 -10 -5 0
-6 -5 -8 -10 -5 -6 4 -17 1 -25 -5 -8 -7 -15 -9 -15 -5 0 4 -6 2 -13 -4 -8 -6
-18 -7 -22 -3 -5 4 -5 1 -1 -5 4 -7 2 -13 -4 -13 -6 0 -8 -5 -4 -13 5 -7 0 -6
-11 3 -17 13 -18 13 -13 -1 5 -12 1 -15 -18 -13 -14 1 -28 -5 -34 -14 -5 -10
-10 -12 -10 -5 0 8 -8 8 -32 0 -18 -7 -36 -16 -39 -20 -3 -4 -19 -10 -35 -13
-16 -3 -31 -9 -32 -15 -2 -5 -7 -7 -12 -4 -4 3 -13 -2 -20 -10 -11 -13 -7 -15
22 -15 19 0 40 6 47 12 10 10 12 10 7 1 -5 -10 158 -12 744 -12 577 0 749 3
743 12 -4 8 -1 8 9 -1 11 -9 45 -12 104 -11 77 1 85 3 69 15 -11 8 -24 13 -30
11 -5 -2 -16 2 -23 10 -8 7 -18 11 -23 8 -5 -4 -9 -2 -9 4 0 5 -8 8 -17 7 -10
-2 -28 4 -40 12 -13 8 -23 10 -23 6 0 -5 -4 -4 -8 2 -4 6 -29 25 -55 43 -39
27 -51 30 -63 20 -12 -10 -13 -9 -7 6 5 15 3 17 -11 12 -9 -4 -15 -3 -12 1 7
11 -28 40 -58 48 -16 4 -23 11 -19 20 3 8 1 14 -5 14 -22 0 -72 59 -72 84 0
14 -4 26 -10 26 -5 0 -9 24 -9 55 1 39 7 59 20 71 11 9 19 27 19 39 0 11 4 25
8 31 7 8 16 35 38 111 4 14 54 14 54 1 0 -5 9 -3 20 4 11 7 20 20 20 30 0 18
36 84 57 106 7 8 11 18 7 23 -3 6 -1 15 4 22 6 7 12 23 14 37 1 14 7 28 12 32
5 3 9 40 9 82 -1 42 2 74 7 71 13 -8 17 18 8 53 -5 17 -14 32 -20 32 -19 0
-37 33 -38 68 0 17 5 32 10 32 6 0 10 10 10 23 0 13 5 28 11 34 7 7 11 50 11
105 0 51 5 101 10 112 6 10 10 54 10 98 0 67 -3 83 -21 102 -12 12 -21 27 -21
34 0 6 -9 17 -20 25 -11 8 -17 17 -13 20 3 4 -1 7 -10 7 -10 0 -17 8 -17 19 0
11 -9 26 -20 34 -11 8 -17 16 -14 20 3 3 -6 13 -20 22 -14 10 -26 23 -26 30 0
7 -13 23 -29 36 -16 13 -28 27 -25 31 2 3 -7 18 -21 32 -14 15 -23 31 -20 36
3 6 -1 13 -9 16 -9 3 -16 13 -16 21 0 20 -184 203 -204 203 -8 0 -16 3 -18 8
-10 23 -138 98 -180 106 -13 2 -31 7 -40 11 -26 10 -198 11 -201 1z"/>
</g>
</svg>
