<svg width="329" height="3691" viewBox="0 0 329 3691" fill="none" xmlns="http://www.w3.org/2000/svg">
<path d="M8 17L4.46447 13.4645L0.928932 17L4.46447 20.5355L8 17ZM67.5 17L71.0355 20.5355L74.5711 17L71.0355 13.4645L67.5 17ZM8.5 3673.5L4.96447 3669.96L1.42893 3673.5L4.96447 3677.04L8.5 3673.5ZM68 3673.5L71.5355 3677.04L75.0711 3673.5L71.5355 3669.96L68 3673.5ZM8.5 77.5H107.5V67.5H8.5V77.5ZM194.5 54.5H269.5V44.5H194.5V54.5ZM8.5 100H166.5V90H8.5V100ZM8.5 126H133V116H8.5V126ZM100.5 54.5H175.5V44.5H100.5V54.5ZM154 126H187.5V116H154V126ZM213 126H243.5V116H213V126ZM187.5 100H235V90H187.5V100ZM8.5 149.5H44.5V139.5H8.5V149.5ZM8.5 195H329V185H8.5V195ZM8.5 217H78.5V207H8.5V217ZM113.5 217H203V207H113.5V217ZM8.5 240H44.5V230H8.5V240ZM67.5 240H175.5V230H67.5V240ZM17.4645 0.464466L4.46447 13.4645L11.5355 20.5355L24.5355 7.53553L17.4645 0.464466ZM4.46447 20.5355L17.4645 33.5355L24.5355 26.4645L11.5355 13.4645L4.46447 20.5355ZM31.0355 30.0355L50.5355 10.5355L43.4645 3.46447L23.9645 22.9645L31.0355 30.0355ZM50.9645 7.53553L63.9645 20.5355L71.0355 13.4645L58.0355 0.464466L50.9645 7.53553ZM63.9645 13.4645L50.9645 26.4645L58.0355 33.5355L71.0355 20.5355L63.9645 13.4645ZM17.9645 3656.96L4.96447 3669.96L12.0355 3677.04L25.0355 3664.04L17.9645 3656.96ZM4.96447 3677.04L17.9645 3690.04L25.0355 3682.96L12.0355 3669.96L4.96447 3677.04ZM31.5355 3686.54L51.0355 3667.04L43.9645 3659.96L24.4645 3679.46L31.5355 3686.54ZM51.4645 3664.04L64.4645 3677.04L71.5355 3669.96L58.5355 3656.96L51.4645 3664.04ZM64.4645 3669.96L51.4645 3682.96L58.5355 3690.04L71.5355 3677.04L64.4645 3669.96ZM8.5 54.5H44.5V44.5H8.5V54.5ZM44.5 54.5H83.5V44.5H44.5V54.5ZM8 284H107V274H8V284ZM194 261H269V251H194V261ZM8 306.5H166V296.5H8V306.5ZM8 520.5H132.5V510.5H8V520.5ZM100 261H175V251H100V261ZM153.5 332.5H187V322.5H153.5V332.5ZM212.5 332.5H243V322.5H212.5V332.5ZM187 306.5H234.5V296.5H187V306.5ZM8 356H44V346H8V356ZM8 379.5H248V369.5H8V379.5ZM8 401.5H78V391.5H8V401.5ZM113 401.5H202.5V391.5H113V401.5ZM8 424.5H44V414.5H8V424.5ZM67 424.5H175V414.5H67V424.5ZM8 261H44V251H8V261ZM44 261H83V251H44V261ZM8 472H107V462H8V472ZM194 449H269V439H194V449ZM8 494.5H100V484.5H8V494.5ZM100 449H175V439H100V449ZM153.5 520.5H187V510.5H153.5V520.5ZM212.5 520.5H243V510.5H212.5V520.5ZM187 494.5H234.5V484.5H187V494.5ZM8 544H44V534H8V544ZM8 569.5H188.5V559.5H8V569.5ZM8 591.5H78V581.5H8V591.5ZM113 591.5H202.5V581.5H113V591.5ZM8 614.5H44V604.5H8V614.5ZM67 614.5H175V604.5H67V614.5ZM8 449H44V439H8V449ZM44 449H83V439H44V449ZM8.5 663H107.5V653H8.5V663ZM194.5 640H269.5V630H194.5V640ZM9 1253.5H167V1243.5H9V1253.5ZM8.5 711.5H133V701.5H8.5V711.5ZM100.5 640H175.5V630H100.5V640ZM154 711.5H187.5V701.5H154V711.5ZM213 711.5H243.5V701.5H213V711.5ZM187.5 685.5H254.5V675.5H187.5V685.5ZM8.5 735H160V725H8.5V735ZM8.5 782.5H78.5V772.5H8.5V782.5ZM113.5 782.5H203V772.5H113.5V782.5ZM8.5 805.5H44.5V795.5H8.5V805.5ZM67.5 805.5H175.5V795.5H67.5V805.5ZM8.5 640H44.5V630H8.5V640ZM44.5 640H83.5V630H44.5V640ZM77.5 760.5H146.5V750.5H77.5V760.5ZM8.5 760.5H38.5V750.5H8.5V760.5ZM38.5 760.5H77.5V750.5H38.5V760.5ZM8.5 852H107.5V842H8.5V852ZM194.5 829H269.5V819H194.5V829ZM8.5 874.5H166.5V864.5H8.5V874.5ZM8.5 1088.5H133V1078.5H8.5V1088.5ZM100.5 829H175.5V819H100.5V829ZM154 900.5H187.5V890.5H154V900.5ZM213 900.5H243.5V890.5H213V900.5ZM187.5 874.5H235V864.5H187.5V874.5ZM8.5 924H44.5V914H8.5V924ZM8.5 947.5H248.5V937.5H8.5V947.5ZM8.5 969.5H78.5V959.5H8.5V969.5ZM113.5 969.5H203V959.5H113.5V969.5ZM8.5 992.5H44.5V982.5H8.5V992.5ZM67.5 992.5H175.5V982.5H67.5V992.5ZM8.5 829H44.5V819H8.5V829ZM44.5 829H83.5V819H44.5V829ZM8.5 1040H107.5V1030H8.5V1040ZM194.5 1017H269.5V1007H194.5V1017ZM8.5 1062.5H100.5V1052.5H8.5V1062.5ZM100.5 1017H175.5V1007H100.5V1017ZM154 1088.5H187.5V1078.5H154V1088.5ZM213 1088.5H243.5V1078.5H213V1088.5ZM187.5 1062.5H235V1052.5H187.5V1062.5ZM8.5 1112H44.5V1102H8.5V1112ZM8.5 1137.5H189V1127.5H8.5V1137.5ZM8.5 1159.5H78.5V1149.5H8.5V1159.5ZM113.5 1159.5H203V1149.5H113.5V1159.5ZM8.5 1182.5H44.5V1172.5H8.5V1182.5ZM67.5 1182.5H175.5V1172.5H67.5V1182.5ZM8.5 1017H44.5V1007H8.5V1017ZM44.5 1017H83.5V1007H44.5V1017ZM9 1231H108V1221H9V1231ZM195 1208H270V1198H195V1208ZM9 1279.5H133.5V1269.5H9V1279.5ZM101 1208H176V1198H101V1208ZM154.5 1279.5H188V1269.5H154.5V1279.5ZM213.5 1279.5H244V1269.5H213.5V1279.5ZM188 1253.5H255V1243.5H188V1253.5ZM9 1303H160.5V1293H9V1303ZM9 1350.5H79V1340.5H9V1350.5ZM114 1350.5H203.5V1340.5H114V1350.5ZM9 1373.5H45V1363.5H9V1373.5ZM68 1373.5H176V1363.5H68V1373.5ZM9 1208H45V1198H9V1208ZM45 1208H84V1198H45V1208ZM78 1328.5H147V1318.5H78V1328.5ZM9 1328.5H39V1318.5H9V1328.5ZM39 1328.5H78V1318.5H39V1328.5ZM9.5 1419.5H108.5V1409.5H9.5V1419.5ZM195.5 1396.5H270.5V1386.5H195.5V1396.5ZM9.5 1442H167.5V1432H9.5V1442ZM9.5 1656H134V1646H9.5V1656ZM101.5 1396.5H176.5V1386.5H101.5V1396.5ZM155 1468H188.5V1458H155V1468ZM214 1468H244.5V1458H214V1468ZM188.5 1442H236V1432H188.5V1442ZM9.5 1491.5H45.5V1481.5H9.5V1491.5ZM9.5 1515H249.5V1505H9.5V1515ZM9.5 1537H79.5V1527H9.5V1537ZM114.5 1537H204V1527H114.5V1537ZM9.5 1560H45.5V1550H9.5V1560ZM68.5 1560H176.5V1550H68.5V1560ZM9.5 1396.5H45.5V1386.5H9.5V1396.5ZM45.5 1396.5H84.5V1386.5H45.5V1396.5ZM9.5 1607.5H108.5V1597.5H9.5V1607.5ZM195.5 1584.5H270.5V1574.5H195.5V1584.5ZM9.5 1630H101.5V1620H9.5V1630ZM101.5 1584.5H176.5V1574.5H101.5V1584.5ZM155 1656H188.5V1646H155V1656ZM214 1656H244.5V1646H214V1656ZM188.5 1630H236V1620H188.5V1630ZM9.5 1679.5H45.5V1669.5H9.5V1679.5ZM9.5 1705H190V1695H9.5V1705ZM9.5 1727H79.5V1717H9.5V1727ZM114.5 1727H204V1717H114.5V1727ZM9.5 1750H45.5V1740H9.5V1750ZM68.5 1750H176.5V1740H68.5V1750ZM9.5 1584.5H45.5V1574.5H9.5V1584.5ZM45.5 1584.5H84.5V1574.5H45.5V1584.5ZM8 1798.5H107V1788.5H8V1798.5ZM194 1775.5H269V1765.5H194V1775.5ZM8 1821H166V1811H8V1821ZM8 1847H132.5V1837H8V1847ZM100 1775.5H175V1765.5H100V1775.5ZM153.5 1847H187V1837H153.5V1847ZM212.5 1847H243V1837H212.5V1847ZM187 1821H254V1811H187V1821ZM8 1870.5H159.5V1860.5H8V1870.5ZM8 1918H78V1908H8V1918ZM113 1918H202.5V1908H113V1918ZM8 1941H44V1931H8V1941ZM67 1941H175V1931H67V1941ZM8 1775.5H44V1765.5H8V1775.5ZM44 1775.5H83V1765.5H44V1775.5ZM77 1896H146V1886H77V1896ZM8 1896H38V1886H8V1896ZM38 1896H77V1886H38V1896ZM8 2002.5H107V1992.5H8V2002.5ZM194 1979.5H269V1969.5H194V1979.5ZM8 2025H166V2015H8V2025ZM8 2225H132.5V2215H8V2225ZM100 1979.5H175V1969.5H100V1979.5ZM153.5 2051H187V2041H153.5V2051ZM212.5 2051H243V2041H212.5V2051ZM187 2025H234.5V2015H187V2025ZM8 2060.5H44V2050.5H8V2060.5ZM8 2084H248V2074H8V2084ZM8 2106H78V2096H8V2106ZM113 2106H202.5V2096H113V2106ZM8 2129H44V2119H8V2129ZM67 2129H175V2119H67V2129ZM8 1979.5H44V1969.5H8V1979.5ZM44 1979.5H83V1969.5H44V1979.5ZM8 2176.5H107V2166.5H8V2176.5ZM194 2153.5H269V2143.5H194V2153.5ZM8 2199H100V2189H8V2199ZM100 2153.5H175V2143.5H100V2153.5ZM153.5 2225H187V2215H153.5V2225ZM212.5 2225H243V2215H212.5V2225ZM187 2199H234.5V2189H187V2199ZM8 2248.5H44V2238.5H8V2248.5ZM8 2274H188.5V2264H8V2274ZM8 2296H78V2286H8V2296ZM113 2296H202.5V2286H113V2296ZM8 2319H44V2309H8V2319ZM67 2319H175V2309H67V2319ZM8 2153.5H44V2143.5H8V2153.5ZM44 2153.5H83V2143.5H44V2153.5ZM8.5 2367.5H107.5V2357.5H8.5V2367.5ZM194.5 2344.5H269.5V2334.5H194.5V2344.5ZM9 2958H167V2948H9V2958ZM8.5 2416H133V2406H8.5V2416ZM100.5 2344.5H175.5V2334.5H100.5V2344.5ZM154 2416H187.5V2406H154V2416ZM213 2416H243.5V2406H213V2416ZM187.5 2390H254.5V2380H187.5V2390ZM8.5 2439.5H160V2429.5H8.5V2439.5ZM8.5 2487H78.5V2477H8.5V2487ZM113.5 2487H203V2477H113.5V2487ZM8.5 2510H44.5V2500H8.5V2510ZM67.5 2510H175.5V2500H67.5V2510ZM8.5 2344.5H44.5V2334.5H8.5V2344.5ZM44.5 2344.5H83.5V2334.5H44.5V2344.5ZM77.5 2465H146.5V2455H77.5V2465ZM8.5 2465H38.5V2455H8.5V2465ZM38.5 2465H77.5V2455H38.5V2465ZM8.5 2556.5H107.5V2546.5H8.5V2556.5ZM194.5 2533.5H269.5V2523.5H194.5V2533.5ZM8.5 2579H166.5V2569H8.5V2579ZM8.5 2793H133V2783H8.5V2793ZM100.5 2533.5H175.5V2523.5H100.5V2533.5ZM154 2605H187.5V2595H154V2605ZM213 2605H243.5V2595H213V2605ZM187.5 2579H235V2569H187.5V2579ZM8.5 2628.5H44.5V2618.5H8.5V2628.5ZM8.5 2652H248.5V2642H8.5V2652ZM8.5 2674H78.5V2664H8.5V2674ZM113.5 2674H203V2664H113.5V2674ZM8.5 2697H44.5V2687H8.5V2697ZM67.5 2697H175.5V2687H67.5V2697ZM8.5 2533.5H44.5V2523.5H8.5V2533.5ZM44.5 2533.5H83.5V2523.5H44.5V2533.5ZM8.5 2744.5H107.5V2734.5H8.5V2744.5ZM194.5 2721.5H269.5V2711.5H194.5V2721.5ZM8.5 2767H100.5V2757H8.5V2767ZM100.5 2721.5H175.5V2711.5H100.5V2721.5ZM154 2793H187.5V2783H154V2793ZM213 2793H243.5V2783H213V2793ZM187.5 2767H235V2757H187.5V2767ZM8.5 2816.5H44.5V2806.5H8.5V2816.5ZM8.5 2842H189V2832H8.5V2842ZM8.5 2864H78.5V2854H8.5V2864ZM113.5 2864H203V2854H113.5V2864ZM8.5 2887H44.5V2877H8.5V2887ZM67.5 2887H175.5V2877H67.5V2887ZM8.5 2721.5H44.5V2711.5H8.5V2721.5ZM44.5 2721.5H83.5V2711.5H44.5V2721.5ZM9 2935.5H108V2925.5H9V2935.5ZM195 2912.5H270V2902.5H195V2912.5ZM9 2984H133.5V2974H9V2984ZM101 2912.5H176V2902.5H101V2912.5ZM154.5 2984H188V2974H154.5V2984ZM213.5 2984H244V2974H213.5V2984ZM188 2958H255V2948H188V2958ZM9 3007.5H160.5V2997.5H9V3007.5ZM9 3055H79V3045H9V3055ZM114 3055H203.5V3045H114V3055ZM9 3078H45V3068H9V3078ZM68 3078H176V3068H68V3078ZM9 2912.5H45V2902.5H9V2912.5ZM45 2912.5H84V2902.5H45V2912.5ZM78 3033H147V3023H78V3033ZM9 3033H39V3023H9V3033ZM39 3033H78V3023H39V3033ZM9.5 3124H108.5V3114H9.5V3124ZM195.5 3101H270.5V3091H195.5V3101ZM9.5 3146.5H167.5V3136.5H9.5V3146.5ZM9.5 3360.5H134V3350.5H9.5V3360.5ZM101.5 3101H176.5V3091H101.5V3101ZM155 3172.5H188.5V3162.5H155V3172.5ZM214 3172.5H244.5V3162.5H214V3172.5ZM188.5 3146.5H236V3136.5H188.5V3146.5ZM9.5 3196H45.5V3186H9.5V3196ZM9.5 3219.5H249.5V3209.5H9.5V3219.5ZM9.5 3241.5H79.5V3231.5H9.5V3241.5ZM114.5 3241.5H204V3231.5H114.5V3241.5ZM9.5 3264.5H45.5V3254.5H9.5V3264.5ZM68.5 3264.5H176.5V3254.5H68.5V3264.5ZM9.5 3101H45.5V3091H9.5V3101ZM45.5 3101H84.5V3091H45.5V3101ZM9.5 3312H108.5V3302H9.5V3312ZM195.5 3289H270.5V3279H195.5V3289ZM9.5 3334.5H101.5V3324.5H9.5V3334.5ZM101.5 3289H176.5V3279H101.5V3289ZM155 3360.5H188.5V3350.5H155V3360.5ZM214 3360.5H244.5V3350.5H214V3360.5ZM188.5 3334.5H236V3324.5H188.5V3334.5ZM9.5 3384H45.5V3374H9.5V3384ZM9.5 3409.5H190V3399.5H9.5V3409.5ZM9.5 3431.5H79.5V3421.5H9.5V3431.5ZM114.5 3431.5H204V3421.5H114.5V3431.5ZM9.5 3454.5H45.5V3444.5H9.5V3454.5ZM68.5 3454.5H176.5V3444.5H68.5V3454.5ZM9.5 3289H45.5V3279H9.5V3289ZM45.5 3289H84.5V3279H45.5V3289ZM8 3503H107V3493H8V3503ZM194 3480H269V3470H194V3480ZM8 3525.5H166V3515.5H8V3525.5ZM8 3551.5H132.5V3541.5H8V3551.5ZM100 3480H175V3470H100V3480ZM153.5 3551.5H187V3541.5H153.5V3551.5ZM212.5 3551.5H243V3541.5H212.5V3551.5ZM187 3525.5H254V3515.5H187V3525.5ZM8 3575H159.5V3565H8V3575ZM8 3622.5H78V3612.5H8V3622.5ZM113 3622.5H202.5V3612.5H113V3622.5ZM8 3645.5H44V3635.5H8V3645.5ZM67 3645.5H175V3635.5H67V3645.5ZM8 3480H44V3470H8V3480ZM44 3480H83V3470H44V3480ZM77 3600.5H146V3590.5H77V3600.5ZM8 3600.5H38V3590.5H8V3600.5ZM38 3600.5H77V3590.5H38V3600.5Z" fill="black"/>
</svg>
