<svg width="183" height="248" viewBox="0 0 183 248" fill="none" xmlns="http://www.w3.org/2000/svg">
<path d="M1 247L44.5 228V216L28.5 197.5L21 181L11.5 150.5V133.5L16 122.5L7.5 106.5L3.5 73.5L21 36L44.5 7L73.5 1M182.5 247L137 222L128.5 205.5L133.5 194.5L137 181H142H147.5L156.5 157V133.5L153.5 126.5L156.5 115L160 78L133.5 39.5L101.5 7L79.5 1M21 115L25 87.5L34 66.5L60.5 62.5L77 67.5L79.5 62.5L93.5 66.5L105 57.5L121 67.5L133.5 101L137 133.5L139 148L145.5 136M79.5 142.5L89.5 157L77 166L64.5 163L54 157M52 230.5L64.5 242H89.5L116 216M21 122.5L34 112L50.5 115L60.5 126.5L79.5 122.5L89.5 106.5H111.5L128.5 122.5L116 142.5H93.5L83 130L60.5 133.5L54 146.5H34L21 130V122.5ZM44.5 176.5L64.5 181H83L105 176.5L89.5 194.5H64.5L44.5 176.5ZM28.5 106.5L41 101H57.5L50.5 94.5H34L28.5 106.5ZM83 97.5L101.5 91L116 94.5L126 105.5L105 101L83 97.5Z" stroke="black"/>
</svg>
