<svg width="921" height="693" viewBox="0 0 921 693" fill="none" xmlns="http://www.w3.org/2000/svg">
<path d="M5 131C77.8333 197.5 228.6 330.5 249 330.5C269.4 330.5 342.833 368.167 377 387C391.009 407.64 408.106 431.786 427 457.148M755.5 343.5L641 399C615.833 417.833 563.9 453.9 557.5 447.5C551.1 441.1 508.167 491.5 487.5 517.5L544 554L669.5 470.5C709.5 440.167 793.9 379.5 811.5 379.5C818.842 379.5 833.459 367.376 850 350.714M755.5 343.5L679.5 302.346M755.5 343.5L850 350.714M427 457.148C509.259 567.567 625.587 701.029 669.5 668.5C737 618.5 890.5 515 890.5 447.5C890.5 393.5 907.5 310 916 275C899.972 295.302 873.109 327.436 850 350.714M427 457.148L629 275L679.5 302.346M679.5 302.346L916 153.5M916 153.5V688H5V5H916V153.5ZM321.5 89C361.296 97.2606 379.565 112.509 383.5 153.5C377.771 192.098 359.45 204.128 321.5 210.5C284.663 203.615 270.542 191.339 258.5 152.5C263.987 112.073 276.343 96.9933 321.5 89Z" stroke="black" stroke-width="10"/>
</svg>
